<?xml version="1.0" encoding="utf-8"?>
<!-- Generator: Adobe Illustrator 19.1.0, SVG Export Plug-In . SVG Version: 6.00 Build 0)  -->
<svg version="1.1" id="Layer_1" xmlns="http://www.w3.org/2000/svg" xmlns:xlink="http://www.w3.org/1999/xlink" x="0px" y="0px"
	viewBox="-189 282.4 31.9 31.9" style="enable-background:new -189 282.4 31.9 31.9;" xml:space="preserve">
<style type="text/css">
	.st0{fill:#D22856;}
</style>
<path class="st0" d="M-173,286.4c6.6,0,12,5.4,12,12s-5.4,12-12,12s-12-5.4-12-12S-179.6,286.4-173,286.4 M-173,282.4
	c-8.8,0-16,7.1-16,16c0,8.8,7.1,16,16,16c8.8,0,16-7.1,16-16C-157.1,289.5-164.2,282.4-173,282.4L-173,282.4z"/>
<path class="st0" d="M-173,306.7c4.7,0,8.5-3.8,8.5-8.5c0-4.7-3.8-8.5-8.5-8.5"/>
</svg>
