<svg version="1.1" id="Layer_1" xmlns="http://www.w3.org/2000/svg" xmlns:xlink="http://www.w3.org/1999/xlink" x="0px" y="0px"
	viewBox="-156 224.9 298 345.1" style="enable-background:new -156 224.9 298 345.1;" xml:space="preserve">
<style type="text/css">
	.st0{fill:#DEDEDE;}
</style>
<path class="st0" d="M108.6,327l5.4-5.4c7.7-7.7,9.1-18.9,3.1-24.9c-6-6-17.2-4.6-24.9,3.1l-5.4,5.4c-21-17-46.6-28.4-74.7-32v-9.6
	h7.7c10.9,0,19.8-8.7,19.8-19.4c0-10.6-8.9-19.4-19.8-19.4h-53.3c-10.9,0-19.8,8.7-19.8,19.4c0,10.6,8.9,19.4,19.8,19.4h7.7v9.6
	c-73.3,9.3-130,71.9-130,147.8c0,82.3,66.7,149,149,149c82.3,0,149-66.7,149-149C142,385.3,129.5,352.6,108.6,327z M-7,531.2
	c-60.8,0-110.2-49.3-110.2-110.2S-67.8,310.8-7,310.8c60.8,0,110.2,49.3,110.2,110.2S53.8,531.2-7,531.2z"/>
</svg>
