<?xml version="1.0" encoding="utf-8"?>
<!-- Generator: Adobe Illustrator 19.1.0, SVG Export Plug-In . SVG Version: 6.00 Build 0)  -->
<svg version="1.1" id="Layer_1" xmlns="http://www.w3.org/2000/svg" xmlns:xlink="http://www.w3.org/1999/xlink" x="0px" y="0px"
	viewBox="-489 387.3 19.7 19.7" style="enable-background:new -489 387.3 19.7 19.7;" xml:space="preserve">
<style type="text/css">
	.st0{fill:#D22856;}
</style>
<path class="st0" d="M-479.2,387.3c-3.5,0-7,0.6-8.3,1.9c-1.1,1-1.4,2.9-1.5,4c0,0,0,0.1,0,0.2c0,0.5,0.4,0.8,0.8,0.8
	c0.1,0,2-0.2,3.2-0.3c0,0,0.1,0,0.1,0c0.4,0,0.8-0.4,0.8-0.8l0-1.6c0-0.5,0.4-0.9,0.9-0.9h8c0.5,0,0.9,0.4,0.9,0.9l0,1.6
	c0,0.4,0.4,0.8,0.8,0.8c0,0,0.1,0,0.1,0c1.2,0.1,3.2,0.3,3.2,0.3c0.5,0,0.8-0.4,0.8-0.8c0-0.1,0-0.2,0-0.2c-0.1-1.2-0.5-3-1.5-4
	C-472.1,387.9-475.6,387.3-479.2,387.3z M-479.2,398c-0.9,0-1.6,0.7-1.6,1.6c0,0.9,0.7,1.6,1.6,1.6c0.9,0,1.6-0.7,1.6-1.6
	C-477.5,398.7-478.2,398-479.2,398z M-480.4,394.3v-1c0-0.6-0.5-1-1-1c-0.6,0-1,0.5-1,1v1l-5.5,5.9c-0.4,0.4-0.6,0.9-0.6,1.5v1.6
	c0,0.9,0.7,1.6,1.6,1.6h0.4v1c0,0.6,0.5,1,1,1c0.6,0,1-0.5,1-1v-1h10.7v1c0,0.6,0.5,1,1,1c0.6,0,1-0.5,1-1v-1h0.4
	c0.9,0,1.6-0.7,1.6-1.6v-1.6c0-0.6-0.2-1.1-0.6-1.5l-5.5-5.9v-1c0-0.6-0.5-1-1-1c-0.6,0-1,0.5-1,1v1
	C-477.9,394.3-480.4,394.3-480.4,394.3z M-479.2,396.3c1.8,0,3.3,1.5,3.3,3.3s-1.5,3.3-3.3,3.3c-1.8,0-3.3-1.5-3.3-3.3
	S-481,396.3-479.2,396.3z"/>
</svg>
