<?xml version="1.0" encoding="utf-8"?>
<!-- Generator: Adobe Illustrator 19.1.0, SVG Export Plug-In . SVG Version: 6.00 Build 0)  -->
<svg version="1.1" id="Layer_1" xmlns="http://www.w3.org/2000/svg" xmlns:xlink="http://www.w3.org/1999/xlink" x="0px" y="0px"
	viewBox="-181 274.3 48 48" style="enable-background:new -181 274.3 48 48;" xml:space="preserve">
<style type="text/css">
	.st0{fill:#8D949B;}
</style>
<path class="st0" d="M-147.9,292.2l-17.9-17.9l-2.8,2.8l4.8,4.8l-10.3,10.3c-1.2,1.2-1.2,3.1,0,4.2l11,11c0.6,0.6,1.3,0.9,2.1,0.9
	c0.8,0,1.5-0.3,2.1-0.9l11-11C-146.7,295.2-146.7,293.3-147.9,292.2z M-170.6,294.3l9.6-9.6l9.6,9.6H-170.6z M-143,297.3
	c0,0-4,4.3-4,7c0,2.2,1.8,4,4,4s4-1.8,4-4C-139,301.6-143,297.3-143,297.3z"/>
<rect x="-181" y="314.3" class="st0" width="48" height="3"/>
</svg>
