<?xml version="1.0" encoding="utf-8"?>
<!-- Generator: Adobe Illustrator 19.1.0, SVG Export Plug-In . SVG Version: 6.00 Build 0)  -->
<svg version="1.1" id="Layer_1" xmlns="http://www.w3.org/2000/svg" xmlns:xlink="http://www.w3.org/1999/xlink" x="0px" y="0px"
	viewBox="-292 383.2 26.8 26.8" style="enable-background:new -292 383.2 26.8 26.8;" xml:space="preserve">
<style type="text/css">
	.st0{fill:#F25B26;}
</style>
<path class="st0" d="M-276.5,396.6l10.8-10.8c0.6-0.6,0.6-1.5,0-2.1s-1.5-0.6-2.1,0l-10.8,10.8l-10.8-10.8c-0.6-0.6-1.5-0.6-2.1,0
	s-0.6,1.5,0,2.1l10.8,10.8l-10.8,10.8c-0.6,0.6-0.6,1.5,0,2.1c0.3,0.3,0.7,0.4,1.1,0.4s0.8-0.1,1.1-0.4l10.8-10.8l10.8,10.8
	c0.3,0.3,0.7,0.4,1.1,0.4s0.8-0.1,1.1-0.4c0.6-0.6,0.6-1.5,0-2.1L-276.5,396.6z"/>
</svg>
