<?xml version="1.0" encoding="utf-8"?>
<!-- Generator: Adobe Illustrator 19.1.0, SVG Export Plug-In . SVG Version: 6.00 Build 0)  -->
<svg version="1.1" id="Layer_1" xmlns="http://www.w3.org/2000/svg" xmlns:xlink="http://www.w3.org/1999/xlink" x="0px" y="0px"
	viewBox="-490 390 18 14" style="enable-background:new -490 390 18 14;" xml:space="preserve">
<style type="text/css">
	.st0{fill:#D22856;}
</style>
<g>
	<g>
		<g>
			<path class="st0" d="M-475.1,391.8c1.2-1,0.9-1.8-0.7-1.8h-10.5c-1.6,0-1.9,0.8-0.7,1.8l3.7,3.1c1.2,1,3.2,1,4.4,0L-475.1,391.8z
				"/>
		</g>
		<g>
			<path class="st0" d="M-478.1,397.1c-1.2,1-2.2,1.8-2.2,1.8c0,0,0,0,0,0c-0.1,0.1-0.2,0.1-0.2,0.1c0,0-0.1,0-0.1,0
				c-0.1,0-0.2,0.1-0.3,0.1c0,0,0,0,0,0c0,0,0,0,0,0c0,0,0,0,0,0c0,0,0,0,0,0c-0.1,0-0.2,0-0.3-0.1c0,0-0.1,0-0.1,0
				c-0.1,0-0.2-0.1-0.2-0.1c0,0,0,0,0,0c0,0-1-0.8-2.2-1.8l-3.9-3.2c-1.2-1-2.2-0.5-2.2,1v6.3c0,1.6,1.3,2.8,2.8,2.8h12.3
				c1.6,0,2.8-1.3,2.8-2.8v-6.3c0-1.6-1-2-2.2-1L-478.1,397.1z"/>
		</g>
	</g>
</g>
</svg>
