<?xml version="1.0" encoding="utf-8"?>
<!-- Generator: Adobe Illustrator 19.1.0, SVG Export Plug-In . SVG Version: 6.00 Build 0)  -->
<svg version="1.1" id="Layer_1" xmlns="http://www.w3.org/2000/svg" xmlns:xlink="http://www.w3.org/1999/xlink" x="0px" y="0px"
	viewBox="-395 286.3 49.9 24" style="enable-background:new -395 286.3 49.9 24;" xml:space="preserve">
<style type="text/css">
	.st0{fill:#D22856;}
</style>
<g id="miu">
	<g id="editor_list_view_hambuger_menu_glyph">
		<g>
			<path id="path-1" class="st0" d="M-393.9,286.3c-0.6,0-1.1,0.4-1.1,1v2c0,0.6,0.5,1,1.1,1h47.7c0.6,0,1.1-0.4,1.1-1v-2
				c0-0.6-0.5-1-1.1-1H-393.9z M-393.9,296.3c-0.6,0-1.1,0.4-1.1,1v2c0,0.6,0.5,1,1.1,1h47.7c0.6,0,1.1-0.4,1.1-1v-2
				c0-0.6-0.5-1-1.1-1H-393.9z M-393.9,306.3c-0.6,0-1.1,0.4-1.1,1v2c0,0.6,0.5,1,1.1,1h47.7c0.6,0,1.1-0.4,1.1-1v-2
				c0-0.6-0.5-1-1.1-1C-346.2,306.3-393.9,306.3-393.9,306.3z"/>
		</g>
		<g>
			<path id="path-1_1_" class="st0" d="M-393.9,286.3c-0.6,0-1.1,0.4-1.1,1v2c0,0.6,0.5,1,1.1,1h47.7c0.6,0,1.1-0.4,1.1-1v-2
				c0-0.6-0.5-1-1.1-1H-393.9z M-393.9,296.3c-0.6,0-1.1,0.4-1.1,1v2c0,0.6,0.5,1,1.1,1h47.7c0.6,0,1.1-0.4,1.1-1v-2
				c0-0.6-0.5-1-1.1-1H-393.9z M-393.9,306.3c-0.6,0-1.1,0.4-1.1,1v2c0,0.6,0.5,1,1.1,1h47.7c0.6,0,1.1-0.4,1.1-1v-2
				c0-0.6-0.5-1-1.1-1C-346.2,306.3-393.9,306.3-393.9,306.3z"/>
		</g>
	</g>
</g>
</svg>
